<svg width="67" height="46" viewBox="0 0 67 46" fill="none" xmlns="http://www.w3.org/2000/svg">
<g clip-path="url(#clip0_2311_106)">
<path d="M12.2909 32.9801L17.6505 26.0447L22.9782 32.9801L25.5068 29.7051L20.1487 22.8167L25.5068 15.9235L22.9782 12.6484L17.6505 19.5387L12.3592 12.6484L9.8276 15.9235L15.1219 22.8167L9.76074 29.7051L12.2909 32.9801Z" fill="black"/>
<path d="M58.6489 17.3376L56.1202 14.0625L47.6183 25.0601L42.3256 18.1707L39.7939 21.4439L47.6183 31.566L58.6489 17.3376Z" fill="black"/>
<path d="M17.6352 45.6298C24.557 45.6298 30.5436 40.4308 33.4281 32.9044C36.314 40.4308 42.2999 45.6298 49.2225 45.6298C58.9478 45.6298 66.8576 35.3972 66.8576 22.8149C66.8576 10.2326 58.9478 0 49.2225 0C42.3006 0 36.314 5.19896 33.4281 12.7255C30.5436 5.19896 24.5577 0 17.6352 0C7.90982 0 0 10.2326 0 22.8149C0 35.3972 7.90982 45.6298 17.6352 45.6298ZM49.2217 5.76691C56.489 5.76691 62.3998 13.4135 62.3998 22.8159C62.3998 32.2182 56.489 39.8648 49.2217 39.8648C41.9559 39.8648 36.0436 32.2182 36.0436 22.8159C36.0436 13.4135 41.9559 5.76691 49.2217 5.76691ZM17.6352 5.76691C24.9009 5.76691 30.8132 13.4135 30.8132 22.8159C30.8132 32.2182 24.9009 39.8648 17.6352 39.8648C10.3679 39.8648 4.45708 32.2182 4.45708 22.8159C4.45708 13.4135 10.3672 5.76691 17.6352 5.76691Z" fill="black"/>
</g>
<defs>
<clipPath id="clip0_2311_106">
<rect width="66.8576" height="45.6298" fill="white"/>
</clipPath>
</defs>
</svg>
